<svg xmlns="http://www.w3.org/2000/svg" width="61.645" height="60.105" viewBox="0 0 61.645 60.105">
  <path id="github-brands" d="M20.619,56.4c0,.249-.286.447-.646.447-.41.037-.7-.162-.7-.447,0-.249.286-.447.646-.447C20.3,55.912,20.619,56.111,20.619,56.4Zm-3.865-.559c-.087.249.162.534.534.609a.583.583,0,0,0,.771-.249c.075-.249-.162-.534-.534-.646A.638.638,0,0,0,16.754,55.837Zm5.493-.211c-.36.087-.609.323-.572.609.037.249.36.41.733.323s.609-.323.572-.572S22.607,55.589,22.247,55.626ZM30.425,8C13.187,8,0,21.087,0,38.326A31.159,31.159,0,0,0,21.066,68.054c1.591.286,2.15-.7,2.15-1.5,0-.771-.037-5.021-.037-7.631,0,0-8.7,1.864-10.527-3.7,0,0-1.417-3.617-3.455-4.549,0,0-2.846-1.951.2-1.914a6.56,6.56,0,0,1,4.8,3.207c2.722,4.8,7.283,3.418,9.06,2.6a6.908,6.908,0,0,1,1.989-4.188c-6.948-.771-13.957-1.777-13.957-13.733a9.419,9.419,0,0,1,2.933-7.32,11.743,11.743,0,0,1,.323-8.439c2.6-.808,8.576,3.356,8.576,3.356a29.361,29.361,0,0,1,15.61,0s5.978-4.176,8.576-3.356a11.737,11.737,0,0,1,.323,8.439c1.989,2.2,3.207,3.915,3.207,7.32,0,11.993-7.32,12.95-14.268,13.733,1.143.982,2.113,2.846,2.113,5.767,0,4.188-.037,9.371-.037,10.39,0,.808.572,1.79,2.15,1.5,12.428-4.126,20.855-15.921,20.855-29.7C61.645,21.087,47.663,8,30.425,8ZM12.08,50.866c-.162.124-.124.41.087.646.2.2.485.286.646.124.162-.124.124-.41-.087-.646C12.528,50.791,12.242,50.7,12.08,50.866Zm-1.342-1.007c-.087.162.037.36.286.485a.37.37,0,0,0,.534-.087c.087-.162-.037-.36-.286-.485C11.024,49.7,10.825,49.735,10.738,49.859Zm4.027,4.425c-.2.162-.124.534.162.771.286.286.646.323.808.124.162-.162.087-.534-.162-.771C15.3,54.122,14.927,54.085,14.765,54.284Zm-1.417-1.827c-.2.124-.2.447,0,.733s.534.41.7.286a.567.567,0,0,0,0-.771c-.174-.286-.5-.41-.7-.249Z" transform="translate(0 -8)" fill="#f3f3f3"/>
</svg>
