<svg xmlns="http://www.w3.org/2000/svg" width="59.741" height="59.74" viewBox="0 0 59.741 59.74">
  <path id="linkedin-in-brands" d="M13.372,59.75H.987V19.865H13.372Zm-6.2-45.326a7.207,7.207,0,1,1,7.173-7.241A7.233,7.233,0,0,1,7.173,14.424ZM59.728,59.75H47.369V40.334c0-4.627-.093-10.561-6.439-10.561C34.49,29.772,33.5,34.8,33.5,40V59.75H21.131V19.865H33.01v5.441h.173c1.654-3.134,5.693-6.441,11.719-6.441,12.535,0,14.839,8.254,14.839,18.976V59.75Z" transform="translate(0 -0.01)" fill="#f3f3f3"/>
</svg>
