<svg xmlns="http://www.w3.org/2000/svg" width="58.69" height="58.69" viewBox="0 0 58.69 58.69">
  <path id="phone-alt-solid" d="M57.016,41.479l-12.839-5.5a2.751,2.751,0,0,0-3.21.791l-5.686,6.947A42.489,42.489,0,0,1,14.971,23.4l6.947-5.686a2.744,2.744,0,0,0,.791-3.21l-5.5-12.839A2.769,2.769,0,0,0,14.054.076L2.132,2.827A2.751,2.751,0,0,0,0,5.508,53.183,53.183,0,0,0,53.189,58.7a2.751,2.751,0,0,0,2.682-2.132l2.751-11.922a2.784,2.784,0,0,0-1.606-3.164Z" transform="translate(0 -0.006)" fill="#f3f3f3"/>
</svg>
