<svg id="Grupo_21" data-name="Grupo 21" xmlns="http://www.w3.org/2000/svg" width="159.674" height="159.675" viewBox="0 0 159.674 159.675">
  <circle id="Elipse_6" data-name="Elipse 6" cx="79.837" cy="79.837" r="79.837" transform="translate(0 0)" fill="#e71d36"/>
  <path id="futbol-solid" d="M59.25,33.625A25.625,25.625,0,1,1,33.625,8,25.625,25.625,0,0,1,59.25,33.625Zm-4.96,0V33.6L51.6,35.945,45.12,29.9l1.7-8.716,3.544.317a20.709,20.709,0,0,0-10.406-7.557l1.41,3.3-7.745,4.291L25.88,17.245l1.41-3.3A20.711,20.711,0,0,0,16.885,21.5l3.571-.318L22.129,29.9l-6.476,6.045L12.96,33.6v.029a20.511,20.511,0,0,0,3.975,12.191l.8-3.5,8.8,1.079,3.751,8.041-3.09,1.838a20.854,20.854,0,0,0,12.871,0l-3.09-1.838,3.751-8.041,8.8-1.079.8,3.5A20.51,20.51,0,0,0,54.29,33.625ZM28.655,40.813l-3.089-9.435,8.059-5.841,8.059,5.841-3.061,9.435Z" transform="translate(46.357 46.357)" fill="#f3f3f3"/>
</svg>
