<svg id="book" xmlns="http://www.w3.org/2000/svg" width="159.674" height="159.674" viewBox="0 0 159.674 159.674">
  <circle id="Elipse_4" data-name="Elipse 4" cx="79.837" cy="79.837" r="79.837" transform="translate(0 0)" fill="#7275b7"/>
  <path id="book-open-solid" d="M61.642,32c-6.23.354-18.612,1.64-26.257,6.32a1.748,1.748,0,0,0-.826,1.5V81.185a1.8,1.8,0,0,0,2.647,1.534c7.865-3.959,19.239-5.039,24.863-5.334A3.546,3.546,0,0,0,65.481,73.9V35.492A3.564,3.564,0,0,0,61.642,32ZM30.1,38.322C22.453,33.642,10.07,32.357,3.84,32A3.566,3.566,0,0,0,0,35.492V73.9a3.544,3.544,0,0,0,3.413,3.486c5.626.3,17.006,1.377,24.871,5.338a1.794,1.794,0,0,0,2.639-1.53V39.8a1.711,1.711,0,0,0-.823-1.478Z" transform="translate(46.713 22.362)" fill="#f3f3f3"/>
</svg>
