<svg xmlns="http://www.w3.org/2000/svg" width="159.674" height="159.674" viewBox="0 0 159.674 159.674">
  <g id="Group_3" data-name="Group 3" transform="translate(-192 -554)">
    <g id="games" transform="translate(192 554)">
      <circle id="Elipse_3" data-name="Elipse 3" cx="79.837" cy="79.837" r="79.837" transform="translate(0 0)" fill="#7275b7"/>
      <path id="gamepad-solid" d="M76.5,96h-51a25.5,25.5,0,1,0,18.2,43.351H58.285A25.5,25.5,0,1,0,76.5,96ZM40.8,124.688a1.918,1.918,0,0,1-1.913,1.913H30.6v8.288a1.918,1.918,0,0,1-1.913,1.913H22.313a1.918,1.918,0,0,1-1.913-1.913V126.6H12.113a1.918,1.918,0,0,1-1.913-1.913v-6.375a1.918,1.918,0,0,1,1.913-1.913H20.4v-8.288a1.918,1.918,0,0,1,1.913-1.913h6.375a1.918,1.918,0,0,1,1.913,1.913V116.4h8.288a1.918,1.918,0,0,1,1.913,1.913Zm29.326,10.838a7.65,7.65,0,1,1,7.65-7.65,7.65,7.65,0,0,1-7.65,7.65Zm12.75-12.75a7.65,7.65,0,1,1,7.65-7.65,7.65,7.65,0,0,1-7.65,7.65Z" transform="translate(28.877 -41.643)" fill="#f3f3f3"/>
    </g>
  </g>
</svg>
