<svg xmlns="http://www.w3.org/2000/svg" width="159.674" height="159.674" viewBox="0 0 159.674 159.674">
  <g id="Group_4" data-name="Group 4" transform="translate(-147.163 -58)">
    <g id="soccer" transform="translate(147.163 58)">
      <circle id="Elipse_6" data-name="Elipse 6" cx="79.837" cy="79.837" r="79.837" transform="translate(0 0)" fill="#7275b7"/>
      <path id="futbol-solid" d="M59.25,33.625A25.625,25.625,0,1,1,33.625,8,25.625,25.625,0,0,1,59.25,33.625Zm-4.96,0V33.6L51.6,35.945,45.12,29.9l1.7-8.716,3.544.317a20.709,20.709,0,0,0-10.406-7.557l1.41,3.3-7.745,4.291-7.743-4.29,1.41-3.3a20.711,20.711,0,0,0-10.4,7.555l3.571-.318L22.129,29.9l-6.476,6.045L12.96,33.6v.029A20.511,20.511,0,0,0,16.935,45.82l.8-3.5,8.8,1.079,3.751,8.041L27.2,53.278a20.854,20.854,0,0,0,12.871,0l-3.09-1.838L40.728,43.4l8.8-1.079.8,3.5A20.51,20.51,0,0,0,54.29,33.625ZM28.655,40.813l-3.089-9.435,8.059-5.841,8.059,5.841-3.061,9.435Z" transform="translate(46.357 46.357)" fill="#f3f3f3"/>
    </g>
  </g>
</svg>
